<svg t="1743680782286" class="icon" viewBox="0 0 1055 1024" version="1.1" xmlns="http://www.w3.org/2000/svg" p-id="4477" width="200" height="200"><path d="M760.952347 332.213014h165.738697a40.171324 40.171324 0 0 1 38.668098 41.642567 40.139341 40.139341 0 0 1-38.668098 38.764049h-208.500688c-56.13111 0-93.55185-67.037497-93.55185-115.236689V82.933315a41.162814 41.162814 0 0 1 40.139341-40.171324c21.908724 0.54372 39.531654 18.230617 40.075374 40.171324v192.956688L969.517002 10.554568a39.659588 39.659588 0 0 1 56.13111 2.302814 39.915456 39.915456 0 0 1 0 53.988213l-264.663781 265.399403zM291.434003 691.548069H125.695306a41.162814 41.162814 0 0 1-40.075374-40.171324 41.162814 41.162814 0 0 1 40.075374-40.235292h221.837823c48.103242 0 80.182731 40.171324 80.182731 101.86757v201.016539a40.139341 40.139341 0 1 1-80.182731-0.031983v-166.186466l-264.631797 265.399402a45.608526 45.608526 0 0 1-58.817728 0 38.987933 38.987933 0 0 1-1.343308-54.947719l1.343308-1.343308 267.318415-265.399403z" p-id="4478"></path></svg>